%TF.GenerationSoftware,KiCad,Pcbnew,9.0.6*%
%TF.CreationDate,2025-12-04T22:18:03-08:00*%
%TF.ProjectId,Dev Board,44657620-426f-4617-9264-2e6b69636164,rev?*%
%TF.SameCoordinates,Original*%
%TF.FileFunction,Copper,L2,Bot*%
%TF.FilePolarity,Positive*%
%FSLAX46Y46*%
G04 Gerber Fmt 4.6, Leading zero omitted, Abs format (unit mm)*
G04 Created by KiCad (PCBNEW 9.0.6) date 2025-12-04 22:18:03*
%MOMM*%
%LPD*%
G01*
G04 APERTURE LIST*
%TA.AperFunction,SMDPad,CuDef*%
%ADD10R,0.380000X1.000000*%
%TD*%
%TA.AperFunction,SMDPad,CuDef*%
%ADD11R,0.700000X1.150000*%
%TD*%
%TA.AperFunction,ComponentPad*%
%ADD12R,0.850000X0.850000*%
%TD*%
%TA.AperFunction,ComponentPad*%
%ADD13C,0.850000*%
%TD*%
%TA.AperFunction,ViaPad*%
%ADD14C,0.600000*%
%TD*%
%TA.AperFunction,Conductor*%
%ADD15C,0.200000*%
%TD*%
G04 APERTURE END LIST*
D10*
%TO.P,P2,B1,GND*%
%TO.N,GND*%
X140000000Y-103400000D03*
%TO.P,P2,B2*%
%TO.N,N/C*%
X139500000Y-103400000D03*
%TO.P,P2,B3*%
X139000000Y-103400000D03*
%TO.P,P2,B4,VBUS*%
%TO.N,VBUS*%
X138500000Y-103400000D03*
%TO.P,P2,B5,VCONN*%
%TO.N,Net-(P2-VCONN)*%
X138000000Y-103400000D03*
%TO.P,P2,B8*%
%TO.N,N/C*%
X136500000Y-103400000D03*
%TO.P,P2,B9,VBUS*%
%TO.N,VBUS*%
X136000000Y-103400000D03*
%TO.P,P2,B10*%
%TO.N,N/C*%
X135500000Y-103400000D03*
%TO.P,P2,B11*%
X135000000Y-103400000D03*
%TO.P,P2,B12,GND*%
%TO.N,GND*%
X134500000Y-103400000D03*
D11*
%TO.P,P2,S1,SHIELD*%
X140670000Y-104240000D03*
%TD*%
D12*
%TO.P,J1,1,Pin_1*%
%TO.N,GND*%
X132900000Y-124700000D03*
D13*
%TO.P,J1,2,Pin_2*%
%TO.N,GPIO15*%
X132900000Y-125700000D03*
%TO.P,J1,3,Pin_3*%
%TO.N,GPIO0*%
X132900000Y-126700001D03*
%TD*%
D14*
%TO.N,GND*%
X141400000Y-104100000D03*
X141300000Y-108500000D03*
X134500000Y-106000000D03*
X140200000Y-112800000D03*
X134500000Y-120100000D03*
X142100000Y-116200000D03*
X137436765Y-117138235D03*
X141700000Y-120000000D03*
X143200000Y-120400000D03*
X138200000Y-126800000D03*
X142000000Y-131600000D03*
X136700000Y-132800000D03*
%TO.N,GPIO15*%
X136800000Y-128937502D03*
%TO.N,GPIO0*%
X136300000Y-124700000D03*
%TO.N,+3V3*%
X136600000Y-116700000D03*
X131600000Y-119500000D03*
X141100000Y-115000000D03*
%TO.N,VBUS*%
X139820000Y-104421528D03*
%TO.N,Net-(P2-VCONN)*%
X142300000Y-104100000D03*
%TO.N,VBUS*%
X139100000Y-105400000D03*
X135600000Y-104400002D03*
%TO.N,Net-(R6-Pad1)*%
X133700000Y-113500000D03*
X133300000Y-116500000D03*
%TO.N,+1V1*%
X138212091Y-117701689D03*
X138000000Y-124600000D03*
%TO.N,+3V3*%
X140225000Y-119900000D03*
X138600000Y-122793873D03*
%TD*%
D15*
%TO.N,GND*%
X140810000Y-104100000D02*
X140670000Y-104240000D01*
X141400000Y-104100000D02*
X140810000Y-104100000D01*
X134500000Y-106000000D02*
X134500000Y-103849942D01*
X134500000Y-103849942D02*
X134509000Y-103840942D01*
%TO.N,+1V1*%
X138000000Y-117913780D02*
X138000000Y-124600000D01*
X138212091Y-117701689D02*
X138000000Y-117913780D01*
%TO.N,GND*%
X140490058Y-104240000D02*
X139991000Y-103740942D01*
X140670000Y-104240000D02*
X140490058Y-104240000D01*
X142100000Y-116200000D02*
X138375000Y-116200000D01*
X138375000Y-116200000D02*
X137436765Y-117138235D01*
X143200000Y-120400000D02*
X142100000Y-120400000D01*
X142100000Y-120400000D02*
X141700000Y-120000000D01*
X138200000Y-127800000D02*
X142000000Y-131600000D01*
X138200000Y-126800000D02*
X138200000Y-127800000D01*
X137900000Y-131600000D02*
X142000000Y-131600000D01*
X136700000Y-132800000D02*
X137900000Y-131600000D01*
%TO.N,GPIO15*%
X132174000Y-127000721D02*
X134110781Y-128937502D01*
X132174000Y-125926000D02*
X132174000Y-127000721D01*
X132400000Y-125700000D02*
X132174000Y-125926000D01*
X134110781Y-128937502D02*
X136800000Y-128937502D01*
X132900000Y-125700000D02*
X132400000Y-125700000D01*
%TO.N,GPIO0*%
X134299999Y-126700001D02*
X136300000Y-124700000D01*
X132900000Y-126700001D02*
X134299999Y-126700001D01*
%TO.N,+3V3*%
X135250000Y-115850000D02*
X136100000Y-116700000D01*
X136100000Y-116700000D02*
X136600000Y-116700000D01*
X135250000Y-115850000D02*
X131600000Y-119500000D01*
X141100000Y-115000000D02*
X136100000Y-115000000D01*
X136100000Y-115000000D02*
X135250000Y-115850000D01*
%TO.N,VBUS*%
X139796472Y-104398000D02*
X139820000Y-104421528D01*
X138500000Y-104192000D02*
X138706000Y-104398000D01*
X138706000Y-104398000D02*
X139796472Y-104398000D01*
X138500000Y-103400000D02*
X138500000Y-104192000D01*
%TO.N,Net-(P2-VCONN)*%
X141284000Y-105116000D02*
X142300000Y-104100000D01*
X140019000Y-105116000D02*
X141284000Y-105116000D01*
X140003000Y-105100000D02*
X140019000Y-105116000D01*
X139649943Y-105100000D02*
X140003000Y-105100000D01*
X139348943Y-104799000D02*
X139649943Y-105100000D01*
X138851057Y-104799000D02*
X139348943Y-104799000D01*
X138009000Y-104609000D02*
X138299000Y-104899000D01*
X138000000Y-104192000D02*
X138009000Y-104201000D01*
X138009000Y-104201000D02*
X138009000Y-104609000D01*
X138299000Y-104899000D02*
X138751057Y-104899000D01*
X138751057Y-104899000D02*
X138851057Y-104799000D01*
X138000000Y-103400000D02*
X138000000Y-104192000D01*
%TO.N,VBUS*%
X135791998Y-104400002D02*
X135600000Y-104400002D01*
X136000000Y-104192000D02*
X135791998Y-104400002D01*
X136000000Y-103400000D02*
X136000000Y-104192000D01*
X136600002Y-104400002D02*
X135600000Y-104400002D01*
X137500000Y-105300000D02*
X136600002Y-104400002D01*
X138999996Y-105300000D02*
X137500000Y-105300000D01*
X139099996Y-105400000D02*
X138999996Y-105300000D01*
X139100000Y-105400000D02*
X139099996Y-105400000D01*
%TO.N,Net-(R6-Pad1)*%
X133700000Y-116100000D02*
X133700000Y-113500000D01*
X133300000Y-116500000D02*
X133700000Y-116100000D01*
%TO.N,+3V3*%
X140225000Y-119900000D02*
X138600000Y-121525000D01*
X138600000Y-121525000D02*
X138600000Y-122793873D01*
%TD*%
%TA.AperFunction,Conductor*%
%TO.N,GND*%
G36*
X133953040Y-103820185D02*
G01*
X133998795Y-103872989D01*
X134010001Y-103924500D01*
X134010001Y-103944785D01*
X134010002Y-103944808D01*
X134012908Y-103969869D01*
X134012909Y-103969873D01*
X134058211Y-104072474D01*
X134058214Y-104072479D01*
X134137520Y-104151785D01*
X134137525Y-104151788D01*
X134240123Y-104197089D01*
X134265205Y-104199999D01*
X134309999Y-104199999D01*
X134310000Y-104199998D01*
X134310000Y-104099388D01*
X134329685Y-104032349D01*
X134382489Y-103986594D01*
X134451647Y-103976650D01*
X134515203Y-104005675D01*
X134527332Y-104017748D01*
X134539790Y-104031990D01*
X134557794Y-104072765D01*
X134637235Y-104152206D01*
X134649798Y-104157753D01*
X134664072Y-104174071D01*
X134690000Y-104199999D01*
X134734784Y-104199999D01*
X134738360Y-104199792D01*
X134738365Y-104199889D01*
X134748950Y-104199325D01*
X134755530Y-104199385D01*
X134765135Y-104200500D01*
X134876166Y-104200499D01*
X134876645Y-104200504D01*
X134909558Y-104210499D01*
X134942539Y-104220183D01*
X134942929Y-104220633D01*
X134943500Y-104220807D01*
X134965779Y-104247003D01*
X134988294Y-104272987D01*
X134988437Y-104273645D01*
X134988765Y-104274031D01*
X134989159Y-104276963D01*
X134999500Y-104324499D01*
X134999500Y-104479059D01*
X135026688Y-104580524D01*
X135040423Y-104631785D01*
X135040426Y-104631792D01*
X135119475Y-104768711D01*
X135119479Y-104768716D01*
X135119480Y-104768718D01*
X135231284Y-104880522D01*
X135231286Y-104880523D01*
X135231290Y-104880526D01*
X135368209Y-104959575D01*
X135368216Y-104959579D01*
X135520943Y-105000502D01*
X135520945Y-105000502D01*
X135679055Y-105000502D01*
X135679057Y-105000502D01*
X135831784Y-104959579D01*
X135968716Y-104880522D01*
X136012417Y-104836821D01*
X136073740Y-104803336D01*
X136100098Y-104800502D01*
X136382747Y-104800502D01*
X136449786Y-104820187D01*
X136470428Y-104836821D01*
X137179519Y-105545912D01*
X137179520Y-105545913D01*
X137254087Y-105620480D01*
X137345413Y-105673207D01*
X137447273Y-105700500D01*
X138508504Y-105700500D01*
X138575543Y-105720185D01*
X138615891Y-105762500D01*
X138619480Y-105768716D01*
X138731284Y-105880520D01*
X138731286Y-105880521D01*
X138731290Y-105880524D01*
X138868209Y-105959573D01*
X138868216Y-105959577D01*
X139020943Y-106000500D01*
X139020945Y-106000500D01*
X139179055Y-106000500D01*
X139179057Y-106000500D01*
X139331784Y-105959577D01*
X139468716Y-105880520D01*
X139580520Y-105768716D01*
X139659577Y-105631784D01*
X139670128Y-105592405D01*
X139684621Y-105568629D01*
X139696190Y-105543297D01*
X139702556Y-105539205D01*
X139706494Y-105532746D01*
X139731537Y-105520580D01*
X139754968Y-105505523D01*
X139765716Y-105503977D01*
X139769341Y-105502217D01*
X139789903Y-105500500D01*
X139890235Y-105500500D01*
X139922327Y-105504724D01*
X139966273Y-105516500D01*
X139966275Y-105516500D01*
X141336725Y-105516500D01*
X141336727Y-105516500D01*
X141438588Y-105489207D01*
X141529913Y-105436480D01*
X142229574Y-104736819D01*
X142290897Y-104703334D01*
X142317255Y-104700500D01*
X142379055Y-104700500D01*
X142379057Y-104700500D01*
X142531784Y-104659577D01*
X142668716Y-104580520D01*
X142780520Y-104468716D01*
X142859577Y-104331784D01*
X142900500Y-104179057D01*
X142900500Y-104020943D01*
X142883257Y-103956591D01*
X142884920Y-103886744D01*
X142924082Y-103828881D01*
X142988311Y-103801377D01*
X143003032Y-103800500D01*
X144175500Y-103800500D01*
X144242539Y-103820185D01*
X144288294Y-103872989D01*
X144299500Y-103924500D01*
X144299500Y-137675500D01*
X144279815Y-137742539D01*
X144227011Y-137788294D01*
X144175500Y-137799500D01*
X130324500Y-137799500D01*
X130257461Y-137779815D01*
X130211706Y-137727011D01*
X130200500Y-137675500D01*
X130200500Y-125873271D01*
X131773500Y-125873271D01*
X131773500Y-127053447D01*
X131800793Y-127155310D01*
X131827156Y-127200971D01*
X131853520Y-127246634D01*
X133864868Y-129257982D01*
X133956193Y-129310709D01*
X134058054Y-129338002D01*
X136299902Y-129338002D01*
X136366941Y-129357687D01*
X136387583Y-129374321D01*
X136431284Y-129418022D01*
X136431286Y-129418023D01*
X136431290Y-129418026D01*
X136568209Y-129497075D01*
X136568216Y-129497079D01*
X136720943Y-129538002D01*
X136720945Y-129538002D01*
X136879055Y-129538002D01*
X136879057Y-129538002D01*
X137031784Y-129497079D01*
X137168716Y-129418022D01*
X137280520Y-129306218D01*
X137359577Y-129169286D01*
X137400500Y-129016559D01*
X137400500Y-128858445D01*
X137359577Y-128705718D01*
X137359573Y-128705711D01*
X137280524Y-128568792D01*
X137280518Y-128568784D01*
X137168717Y-128456983D01*
X137168709Y-128456977D01*
X137031790Y-128377928D01*
X137031786Y-128377926D01*
X137031784Y-128377925D01*
X136879057Y-128337002D01*
X136720943Y-128337002D01*
X136568216Y-128377925D01*
X136568209Y-128377928D01*
X136431290Y-128456977D01*
X136431282Y-128456983D01*
X136387583Y-128500683D01*
X136326260Y-128534168D01*
X136299902Y-128537002D01*
X134328036Y-128537002D01*
X134260997Y-128517317D01*
X134240355Y-128500683D01*
X133253949Y-127514277D01*
X133220464Y-127452954D01*
X133225448Y-127383262D01*
X133267320Y-127327329D01*
X133272715Y-127323511D01*
X133362479Y-127263533D01*
X133463532Y-127162480D01*
X133465437Y-127159628D01*
X133468124Y-127155609D01*
X133521737Y-127110804D01*
X133571225Y-127100501D01*
X134352724Y-127100501D01*
X134352726Y-127100501D01*
X134454587Y-127073208D01*
X134545912Y-127020481D01*
X136229573Y-125336818D01*
X136290896Y-125303334D01*
X136317254Y-125300500D01*
X136379055Y-125300500D01*
X136379057Y-125300500D01*
X136531784Y-125259577D01*
X136668716Y-125180520D01*
X136780520Y-125068716D01*
X136859577Y-124931784D01*
X136900500Y-124779057D01*
X136900500Y-124620943D01*
X136873705Y-124520943D01*
X137399500Y-124520943D01*
X137399500Y-124679057D01*
X137426295Y-124779055D01*
X137440423Y-124831783D01*
X137440426Y-124831790D01*
X137519475Y-124968709D01*
X137519479Y-124968714D01*
X137519480Y-124968716D01*
X137631284Y-125080520D01*
X137631286Y-125080521D01*
X137631290Y-125080524D01*
X137768209Y-125159573D01*
X137768216Y-125159577D01*
X137920943Y-125200500D01*
X137920945Y-125200500D01*
X138079055Y-125200500D01*
X138079057Y-125200500D01*
X138231784Y-125159577D01*
X138368716Y-125080520D01*
X138480520Y-124968716D01*
X138559577Y-124831784D01*
X138600500Y-124679057D01*
X138600500Y-124520943D01*
X138559577Y-124368216D01*
X138538258Y-124331290D01*
X138480524Y-124231290D01*
X138480518Y-124231282D01*
X138436819Y-124187583D01*
X138403334Y-124126260D01*
X138400500Y-124099902D01*
X138400500Y-123518373D01*
X138420185Y-123451334D01*
X138472989Y-123405579D01*
X138524500Y-123394373D01*
X138679055Y-123394373D01*
X138679057Y-123394373D01*
X138831784Y-123353450D01*
X138968716Y-123274393D01*
X139080520Y-123162589D01*
X139159577Y-123025657D01*
X139200500Y-122872930D01*
X139200500Y-122714816D01*
X139159577Y-122562089D01*
X139159573Y-122562082D01*
X139080524Y-122425163D01*
X139080518Y-122425155D01*
X139036819Y-122381456D01*
X139003334Y-122320133D01*
X139000500Y-122293775D01*
X139000500Y-121742255D01*
X139020185Y-121675216D01*
X139036819Y-121654574D01*
X140154574Y-120536819D01*
X140215897Y-120503334D01*
X140242255Y-120500500D01*
X140304055Y-120500500D01*
X140304057Y-120500500D01*
X140456784Y-120459577D01*
X140593716Y-120380520D01*
X140705520Y-120268716D01*
X140784577Y-120131784D01*
X140825500Y-119979057D01*
X140825500Y-119820943D01*
X140784577Y-119668216D01*
X140733101Y-119579056D01*
X140705524Y-119531290D01*
X140705518Y-119531282D01*
X140593717Y-119419481D01*
X140593709Y-119419475D01*
X140456790Y-119340426D01*
X140456786Y-119340424D01*
X140456784Y-119340423D01*
X140304057Y-119299500D01*
X140145943Y-119299500D01*
X139993216Y-119340423D01*
X139993209Y-119340426D01*
X139856290Y-119419475D01*
X139856282Y-119419481D01*
X139744481Y-119531282D01*
X139744475Y-119531290D01*
X139665426Y-119668209D01*
X139665423Y-119668216D01*
X139624500Y-119820943D01*
X139624500Y-119882745D01*
X139604815Y-119949784D01*
X139588181Y-119970426D01*
X138612181Y-120946426D01*
X138550858Y-120979911D01*
X138481166Y-120974927D01*
X138425233Y-120933055D01*
X138400816Y-120867591D01*
X138400500Y-120858745D01*
X138400500Y-118357900D01*
X138420185Y-118290861D01*
X138462500Y-118250512D01*
X138580807Y-118182209D01*
X138692611Y-118070405D01*
X138771668Y-117933473D01*
X138812591Y-117780746D01*
X138812591Y-117622632D01*
X138771668Y-117469905D01*
X138771664Y-117469898D01*
X138692615Y-117332979D01*
X138692609Y-117332971D01*
X138580808Y-117221170D01*
X138580800Y-117221164D01*
X138443881Y-117142115D01*
X138443877Y-117142113D01*
X138443875Y-117142112D01*
X138291148Y-117101189D01*
X138133034Y-117101189D01*
X137980307Y-117142112D01*
X137980300Y-117142115D01*
X137843381Y-117221164D01*
X137843373Y-117221170D01*
X137731572Y-117332971D01*
X137731566Y-117332979D01*
X137652517Y-117469898D01*
X137652514Y-117469905D01*
X137611591Y-117622632D01*
X137611591Y-117788873D01*
X137610889Y-117788873D01*
X137608314Y-117828156D01*
X137599500Y-117861053D01*
X137599500Y-117861056D01*
X137599500Y-124099902D01*
X137579815Y-124166941D01*
X137563181Y-124187583D01*
X137519481Y-124231282D01*
X137519475Y-124231290D01*
X137440426Y-124368209D01*
X137440423Y-124368216D01*
X137399500Y-124520943D01*
X136873705Y-124520943D01*
X136859577Y-124468216D01*
X136801843Y-124368216D01*
X136780524Y-124331290D01*
X136780518Y-124331282D01*
X136668717Y-124219481D01*
X136668709Y-124219475D01*
X136531790Y-124140426D01*
X136531786Y-124140424D01*
X136531784Y-124140423D01*
X136379057Y-124099500D01*
X136220943Y-124099500D01*
X136068216Y-124140423D01*
X136068209Y-124140426D01*
X135931290Y-124219475D01*
X135931282Y-124219481D01*
X135819481Y-124331282D01*
X135819475Y-124331290D01*
X135740426Y-124468209D01*
X135740423Y-124468216D01*
X135699500Y-124620943D01*
X135699500Y-124682745D01*
X135679815Y-124749784D01*
X135663181Y-124770426D01*
X134170425Y-126263182D01*
X134109102Y-126296667D01*
X134082744Y-126299501D01*
X133603965Y-126299501D01*
X133536926Y-126279816D01*
X133491171Y-126227012D01*
X133481227Y-126157854D01*
X133500863Y-126106610D01*
X133542925Y-126043659D01*
X133542925Y-126043658D01*
X133542929Y-126043653D01*
X133597619Y-125911620D01*
X133625500Y-125771455D01*
X133625500Y-125628545D01*
X133625500Y-125628542D01*
X133597620Y-125488385D01*
X133597619Y-125488384D01*
X133597619Y-125488380D01*
X133566207Y-125412546D01*
X133558739Y-125343082D01*
X133572993Y-125308363D01*
X133572146Y-125307989D01*
X133622088Y-125194879D01*
X133622089Y-125194875D01*
X133624999Y-125169794D01*
X133625000Y-125169791D01*
X133625000Y-124950000D01*
X132949728Y-124950000D01*
X133041614Y-124911940D01*
X133111940Y-124841614D01*
X133150000Y-124749728D01*
X133150000Y-124650272D01*
X133111940Y-124558386D01*
X133041614Y-124488060D01*
X132949728Y-124450000D01*
X133150000Y-124450000D01*
X133624999Y-124450000D01*
X133624999Y-124230214D01*
X133624997Y-124230191D01*
X133622091Y-124205130D01*
X133622090Y-124205126D01*
X133576788Y-124102525D01*
X133576785Y-124102520D01*
X133497479Y-124023214D01*
X133497474Y-124023211D01*
X133394876Y-123977910D01*
X133369794Y-123975000D01*
X133150000Y-123975000D01*
X133150000Y-124450000D01*
X132949728Y-124450000D01*
X132850272Y-124450000D01*
X132758386Y-124488060D01*
X132688060Y-124558386D01*
X132650000Y-124650272D01*
X132650000Y-124749728D01*
X132688060Y-124841614D01*
X132758386Y-124911940D01*
X132850272Y-124950000D01*
X132175001Y-124950000D01*
X132175001Y-125169785D01*
X132175002Y-125169808D01*
X132177908Y-125194869D01*
X132177910Y-125194876D01*
X132193418Y-125229999D01*
X132202488Y-125299277D01*
X132172664Y-125362462D01*
X132155476Y-125378454D01*
X132154087Y-125379519D01*
X131853522Y-125680084D01*
X131853518Y-125680090D01*
X131800794Y-125771410D01*
X131800792Y-125771414D01*
X131800502Y-125772497D01*
X131800501Y-125772496D01*
X131773500Y-125873271D01*
X130200500Y-125873271D01*
X130200500Y-124230205D01*
X132175000Y-124230205D01*
X132175000Y-124450000D01*
X132650000Y-124450000D01*
X132650000Y-123975000D01*
X132430214Y-123975000D01*
X132430191Y-123975002D01*
X132405130Y-123977908D01*
X132405126Y-123977909D01*
X132302525Y-124023211D01*
X132302520Y-124023214D01*
X132223214Y-124102520D01*
X132223211Y-124102525D01*
X132177910Y-124205122D01*
X132177910Y-124205124D01*
X132175000Y-124230205D01*
X130200500Y-124230205D01*
X130200500Y-119420943D01*
X130999500Y-119420943D01*
X130999500Y-119579056D01*
X131040423Y-119731783D01*
X131040426Y-119731790D01*
X131119475Y-119868709D01*
X131119479Y-119868714D01*
X131119480Y-119868716D01*
X131231284Y-119980520D01*
X131231286Y-119980521D01*
X131231290Y-119980524D01*
X131368209Y-120059573D01*
X131368216Y-120059577D01*
X131520943Y-120100500D01*
X131520945Y-120100500D01*
X131679055Y-120100500D01*
X131679057Y-120100500D01*
X131831784Y-120059577D01*
X131968716Y-119980520D01*
X132080520Y-119868716D01*
X132159577Y-119731784D01*
X132200500Y-119579057D01*
X132200500Y-119517253D01*
X132220185Y-119450214D01*
X132236814Y-119429577D01*
X135162320Y-116504070D01*
X135223641Y-116470587D01*
X135293333Y-116475571D01*
X135337677Y-116504070D01*
X135565391Y-116731783D01*
X135775179Y-116941571D01*
X135775189Y-116941582D01*
X135779519Y-116945912D01*
X135779520Y-116945913D01*
X135854087Y-117020480D01*
X135921805Y-117059577D01*
X135945413Y-117073207D01*
X136047274Y-117100501D01*
X136099903Y-117100501D01*
X136166942Y-117120186D01*
X136187584Y-117136820D01*
X136231284Y-117180520D01*
X136231286Y-117180521D01*
X136231290Y-117180524D01*
X136366063Y-117258334D01*
X136368216Y-117259577D01*
X136520943Y-117300500D01*
X136520945Y-117300500D01*
X136679055Y-117300500D01*
X136679057Y-117300500D01*
X136831784Y-117259577D01*
X136968716Y-117180520D01*
X137080520Y-117068716D01*
X137159577Y-116931784D01*
X137200500Y-116779057D01*
X137200500Y-116620943D01*
X137159577Y-116468216D01*
X137088966Y-116345913D01*
X137080524Y-116331290D01*
X137080518Y-116331282D01*
X136968717Y-116219481D01*
X136968709Y-116219475D01*
X136831790Y-116140426D01*
X136831786Y-116140424D01*
X136831784Y-116140423D01*
X136679057Y-116099500D01*
X136520943Y-116099500D01*
X136368216Y-116140423D01*
X136368215Y-116140423D01*
X136284894Y-116188528D01*
X136216993Y-116204999D01*
X136150967Y-116182147D01*
X136135214Y-116168821D01*
X135904073Y-115937680D01*
X135870588Y-115876357D01*
X135875572Y-115806665D01*
X135904071Y-115762320D01*
X136229573Y-115436819D01*
X136290896Y-115403334D01*
X136317254Y-115400500D01*
X140599902Y-115400500D01*
X140666941Y-115420185D01*
X140687583Y-115436819D01*
X140731284Y-115480520D01*
X140731286Y-115480521D01*
X140731290Y-115480524D01*
X140868209Y-115559573D01*
X140868216Y-115559577D01*
X141020943Y-115600500D01*
X141020945Y-115600500D01*
X141179055Y-115600500D01*
X141179057Y-115600500D01*
X141331784Y-115559577D01*
X141468716Y-115480520D01*
X141580520Y-115368716D01*
X141659577Y-115231784D01*
X141700500Y-115079057D01*
X141700500Y-114920943D01*
X141659577Y-114768216D01*
X141608369Y-114679520D01*
X141580524Y-114631290D01*
X141580518Y-114631282D01*
X141468717Y-114519481D01*
X141468709Y-114519475D01*
X141331790Y-114440426D01*
X141331786Y-114440424D01*
X141331784Y-114440423D01*
X141179057Y-114399500D01*
X141020943Y-114399500D01*
X140868216Y-114440423D01*
X140868209Y-114440426D01*
X140731290Y-114519475D01*
X140731282Y-114519481D01*
X140687583Y-114563181D01*
X140626260Y-114596666D01*
X140599902Y-114599500D01*
X136160339Y-114599500D01*
X136160323Y-114599499D01*
X136152727Y-114599499D01*
X136047274Y-114599499D01*
X135945413Y-114626793D01*
X135945411Y-114626793D01*
X135945411Y-114626794D01*
X135854084Y-114679522D01*
X135779518Y-114754089D01*
X134986646Y-115546960D01*
X134929521Y-115604086D01*
X134312181Y-116221426D01*
X134250858Y-116254911D01*
X134181166Y-116249927D01*
X134125233Y-116208055D01*
X134100816Y-116142591D01*
X134100500Y-116133745D01*
X134100500Y-114000098D01*
X134120185Y-113933059D01*
X134136819Y-113912417D01*
X134180520Y-113868716D01*
X134259577Y-113731784D01*
X134300500Y-113579057D01*
X134300500Y-113420943D01*
X134259577Y-113268216D01*
X134259573Y-113268209D01*
X134180524Y-113131290D01*
X134180518Y-113131282D01*
X134068717Y-113019481D01*
X134068709Y-113019475D01*
X133931790Y-112940426D01*
X133931786Y-112940424D01*
X133931784Y-112940423D01*
X133779057Y-112899500D01*
X133620943Y-112899500D01*
X133468216Y-112940423D01*
X133468209Y-112940426D01*
X133331290Y-113019475D01*
X133331282Y-113019481D01*
X133219481Y-113131282D01*
X133219475Y-113131290D01*
X133140426Y-113268209D01*
X133140423Y-113268216D01*
X133099500Y-113420943D01*
X133099500Y-113579056D01*
X133140423Y-113731783D01*
X133140426Y-113731790D01*
X133219475Y-113868709D01*
X133219481Y-113868717D01*
X133263181Y-113912417D01*
X133296666Y-113973740D01*
X133299500Y-114000098D01*
X133299500Y-115783302D01*
X133279815Y-115850341D01*
X133227011Y-115896096D01*
X133207595Y-115903076D01*
X133176654Y-115911367D01*
X133068214Y-115940423D01*
X133068209Y-115940426D01*
X132931290Y-116019475D01*
X132931282Y-116019481D01*
X132819481Y-116131282D01*
X132819475Y-116131290D01*
X132740426Y-116268209D01*
X132740423Y-116268216D01*
X132699500Y-116420943D01*
X132699500Y-116579057D01*
X132710724Y-116620943D01*
X132740423Y-116731783D01*
X132740426Y-116731790D01*
X132819475Y-116868709D01*
X132819479Y-116868714D01*
X132819480Y-116868716D01*
X132931284Y-116980520D01*
X132931286Y-116980521D01*
X132931290Y-116980524D01*
X133000497Y-117020480D01*
X133068216Y-117059577D01*
X133180817Y-117089748D01*
X133240476Y-117126112D01*
X133271005Y-117188959D01*
X133262710Y-117258334D01*
X133236403Y-117297203D01*
X131670426Y-118863181D01*
X131609103Y-118896666D01*
X131582745Y-118899500D01*
X131520943Y-118899500D01*
X131368216Y-118940423D01*
X131368209Y-118940426D01*
X131231290Y-119019475D01*
X131231282Y-119019481D01*
X131119481Y-119131282D01*
X131119475Y-119131290D01*
X131040426Y-119268209D01*
X131040423Y-119268216D01*
X130999500Y-119420943D01*
X130200500Y-119420943D01*
X130200500Y-103924500D01*
X130220185Y-103857461D01*
X130272989Y-103811706D01*
X130324500Y-103800500D01*
X133886001Y-103800500D01*
X133953040Y-103820185D01*
G37*
%TD.AperFunction*%
%TA.AperFunction,Conductor*%
G36*
X141620956Y-103807543D02*
G01*
X141645781Y-103810512D01*
X141653903Y-103817218D01*
X141664007Y-103820185D01*
X141680375Y-103839075D01*
X141699659Y-103854997D01*
X141702866Y-103865031D01*
X141709762Y-103872989D01*
X141713319Y-103897732D01*
X141720933Y-103921549D01*
X141719031Y-103937454D01*
X141719706Y-103942147D01*
X141716745Y-103956581D01*
X141699500Y-104020943D01*
X141699500Y-104020945D01*
X141699500Y-104082744D01*
X141679815Y-104149783D01*
X141663181Y-104170425D01*
X141379925Y-104453681D01*
X141318602Y-104487166D01*
X141292244Y-104490000D01*
X140544500Y-104490000D01*
X140477461Y-104470315D01*
X140431706Y-104417511D01*
X140420500Y-104366000D01*
X140420500Y-104342473D01*
X140420500Y-104342471D01*
X140379577Y-104189744D01*
X140371642Y-104176000D01*
X140355169Y-104108100D01*
X140378022Y-104042073D01*
X140432943Y-103998882D01*
X140479029Y-103990000D01*
X141319999Y-103990000D01*
X141319999Y-103924500D01*
X141339684Y-103857461D01*
X141392488Y-103811706D01*
X141443999Y-103800500D01*
X141534108Y-103800500D01*
X141596968Y-103800500D01*
X141620956Y-103807543D01*
G37*
%TD.AperFunction*%
%TD*%
M02*
