M48
; DRILL file {KiCad 9.0.6} date 2025-12-04T22:18:18-0800
; FORMAT={-:-/ absolute / metric / decimal}
; #@! TF.CreationDate,2025-12-04T22:18:18-08:00
; #@! TF.GenerationSoftware,Kicad,Pcbnew,9.0.6
; #@! TF.FileFunction,Plated,1,2,PTH
FMAT,2
METRIC
; #@! TA.AperFunction,Plated,PTH,ViaDrill
T1C0.300
; #@! TA.AperFunction,Plated,PTH,ComponentDrill
T2C0.500
%
G90
G05
T1
X131.6Y-119.5
X133.3Y-116.5
X133.7Y-113.5
X134.5Y-106.0
X134.5Y-120.1
X135.6Y-104.4
X136.3Y-124.7
X136.6Y-116.7
X136.7Y-132.8
X136.8Y-128.938
X137.437Y-117.138
X138.0Y-124.6
X138.2Y-126.8
X138.212Y-117.702
X138.6Y-122.794
X139.1Y-105.4
X139.82Y-104.422
X140.2Y-112.8
X140.225Y-119.9
X141.1Y-115.0
X141.3Y-108.5
X141.4Y-104.1
X141.7Y-120.0
X142.0Y-131.6
X142.1Y-116.2
X142.3Y-104.1
X143.2Y-120.4
T2
X132.9Y-124.7
X132.9Y-125.7
X132.9Y-126.7
M30
