%TF.GenerationSoftware,KiCad,Pcbnew,9.0.6*%
%TF.CreationDate,2025-12-04T22:18:03-08:00*%
%TF.ProjectId,Dev Board,44657620-426f-4617-9264-2e6b69636164,rev?*%
%TF.SameCoordinates,Original*%
%TF.FileFunction,Soldermask,Top*%
%TF.FilePolarity,Negative*%
%FSLAX46Y46*%
G04 Gerber Fmt 4.6, Leading zero omitted, Abs format (unit mm)*
G04 Created by KiCad (PCBNEW 9.0.6) date 2025-12-04 22:18:03*
%MOMM*%
%LPD*%
G01*
G04 APERTURE LIST*
G04 Aperture macros list*
%AMRoundRect*
0 Rectangle with rounded corners*
0 $1 Rounding radius*
0 $2 $3 $4 $5 $6 $7 $8 $9 X,Y pos of 4 corners*
0 Add a 4 corners polygon primitive as box body*
4,1,4,$2,$3,$4,$5,$6,$7,$8,$9,$2,$3,0*
0 Add four circle primitives for the rounded corners*
1,1,$1+$1,$2,$3*
1,1,$1+$1,$4,$5*
1,1,$1+$1,$6,$7*
1,1,$1+$1,$8,$9*
0 Add four rect primitives between the rounded corners*
20,1,$1+$1,$2,$3,$4,$5,0*
20,1,$1+$1,$4,$5,$6,$7,0*
20,1,$1+$1,$6,$7,$8,$9,0*
20,1,$1+$1,$8,$9,$2,$3,0*%
G04 Aperture macros list end*
%ADD10R,0.380000X1.000000*%
%ADD11R,0.700000X1.150000*%
%ADD12RoundRect,0.140000X-0.170000X0.140000X-0.170000X-0.140000X0.170000X-0.140000X0.170000X0.140000X0*%
%ADD13R,0.200000X1.600000*%
%ADD14RoundRect,0.062500X-0.387500X-0.062500X0.387500X-0.062500X0.387500X0.062500X-0.387500X0.062500X0*%
%ADD15RoundRect,0.103000X-0.309000X0.609000X-0.309000X-0.609000X0.309000X-0.609000X0.309000X0.609000X0*%
%ADD16R,0.900000X1.000000*%
%ADD17R,1.700000X0.550000*%
%ADD18R,0.850000X0.850000*%
%ADD19C,0.850000*%
%ADD20RoundRect,0.250000X0.450000X0.350000X-0.450000X0.350000X-0.450000X-0.350000X0.450000X-0.350000X0*%
%ADD21RoundRect,0.050000X-0.387500X-0.050000X0.387500X-0.050000X0.387500X0.050000X-0.387500X0.050000X0*%
%ADD22RoundRect,0.050000X-0.050000X-0.387500X0.050000X-0.387500X0.050000X0.387500X-0.050000X0.387500X0*%
%ADD23R,3.200000X3.200000*%
%ADD24RoundRect,0.135000X0.226274X0.035355X0.035355X0.226274X-0.226274X-0.035355X-0.035355X-0.226274X0*%
%ADD25RoundRect,0.135000X-0.135000X-0.185000X0.135000X-0.185000X0.135000X0.185000X-0.135000X0.185000X0*%
%ADD26RoundRect,0.135000X0.185000X-0.135000X0.185000X0.135000X-0.185000X0.135000X-0.185000X-0.135000X0*%
%ADD27RoundRect,0.135000X-0.185000X0.135000X-0.185000X-0.135000X0.185000X-0.135000X0.185000X0.135000X0*%
%ADD28RoundRect,0.135000X0.135000X0.185000X-0.135000X0.185000X-0.135000X-0.185000X0.135000X-0.185000X0*%
%ADD29RoundRect,0.140000X0.170000X-0.140000X0.170000X0.140000X-0.170000X0.140000X-0.170000X-0.140000X0*%
%ADD30RoundRect,0.237500X0.237500X-0.300000X0.237500X0.300000X-0.237500X0.300000X-0.237500X-0.300000X0*%
%ADD31RoundRect,0.140000X0.219203X0.021213X0.021213X0.219203X-0.219203X-0.021213X-0.021213X-0.219203X0*%
%ADD32RoundRect,0.140000X0.140000X0.170000X-0.140000X0.170000X-0.140000X-0.170000X0.140000X-0.170000X0*%
%ADD33RoundRect,0.140000X0.021213X-0.219203X0.219203X-0.021213X-0.021213X0.219203X-0.219203X0.021213X0*%
%ADD34RoundRect,0.140000X-0.140000X-0.170000X0.140000X-0.170000X0.140000X0.170000X-0.140000X0.170000X0*%
G04 APERTURE END LIST*
D10*
%TO.C,P2*%
X134500000Y-103400000D03*
X135000000Y-103400000D03*
X135500000Y-103400000D03*
X136000000Y-103400000D03*
X136500000Y-103400000D03*
X137000000Y-103400000D03*
X137500000Y-103400000D03*
X138000000Y-103400000D03*
X138500000Y-103400000D03*
X139000000Y-103400000D03*
X139500000Y-103400000D03*
X140000000Y-103400000D03*
D11*
X133830000Y-104240000D03*
%TD*%
D12*
%TO.C,C10*%
X141100000Y-133280000D03*
X141100000Y-132320000D03*
%TD*%
D13*
%TO.C,IC1*%
X135825000Y-118550000D03*
D14*
X137250000Y-117800000D03*
X137250000Y-118300000D03*
X137250000Y-118800000D03*
X137250000Y-119300000D03*
X134400000Y-119300000D03*
X134400000Y-118800000D03*
X134400000Y-118300000D03*
X134400000Y-117800000D03*
%TD*%
D15*
%TO.C,VR1*%
X141250000Y-107235000D03*
X139350000Y-107235000D03*
X140300000Y-109365000D03*
%TD*%
D16*
%TO.C,SW1*%
X134700000Y-111800000D03*
X138800000Y-111800000D03*
X134700000Y-113400000D03*
X138800000Y-113400000D03*
D17*
X136750000Y-111175000D03*
%TD*%
D18*
%TO.C,J1*%
X132900000Y-124700000D03*
D19*
X132900000Y-125700000D03*
X132900000Y-126700001D03*
%TD*%
D20*
%TO.C,Y1*%
X137700000Y-134250000D03*
X135500000Y-134250000D03*
X135500000Y-135950000D03*
X137700000Y-135950000D03*
%TD*%
D21*
%TO.C,U1*%
X134762500Y-124237500D03*
X134762500Y-124637500D03*
X134762500Y-125037500D03*
X134762500Y-125437500D03*
X134762500Y-125837500D03*
X134762500Y-126237500D03*
X134762500Y-126637500D03*
X134762500Y-127037500D03*
X134762500Y-127437500D03*
X134762500Y-127837500D03*
X134762500Y-128237500D03*
X134762500Y-128637500D03*
X134762500Y-129037500D03*
X134762500Y-129437500D03*
D22*
X135600000Y-130275000D03*
X136000000Y-130275000D03*
X136400000Y-130275000D03*
X136800000Y-130275000D03*
X137200000Y-130275000D03*
X137600000Y-130275000D03*
X138000000Y-130275000D03*
X138400000Y-130275000D03*
X138800000Y-130275000D03*
X139200000Y-130275000D03*
X139600000Y-130275000D03*
X140000000Y-130275000D03*
X140400000Y-130275000D03*
X140800000Y-130275000D03*
D21*
X141637500Y-129437500D03*
X141637500Y-129037500D03*
X141637500Y-128637500D03*
X141637500Y-128237500D03*
X141637500Y-127837500D03*
X141637500Y-127437500D03*
X141637500Y-127037500D03*
X141637500Y-126637500D03*
X141637500Y-126237500D03*
X141637500Y-125837500D03*
X141637500Y-125437500D03*
X141637500Y-125037500D03*
X141637500Y-124637500D03*
X141637500Y-124237500D03*
D22*
X140800000Y-123400000D03*
X140400000Y-123400000D03*
X140000000Y-123400000D03*
X139600000Y-123400000D03*
X139200000Y-123400000D03*
X138800000Y-123400000D03*
X138400000Y-123400000D03*
X138000000Y-123400000D03*
X137600000Y-123400000D03*
X137200000Y-123400000D03*
X136800000Y-123400000D03*
X136400000Y-123400000D03*
X136000000Y-123400000D03*
X135600000Y-123400000D03*
D23*
X138200000Y-126837500D03*
%TD*%
D24*
%TO.C,R7*%
X133560624Y-121960624D03*
X132839376Y-121239376D03*
%TD*%
D25*
%TO.C,R6*%
X133990001Y-116500000D03*
X135009999Y-116500000D03*
%TD*%
D26*
%TO.C,R5*%
X137800000Y-132809999D03*
X137800000Y-131790001D03*
%TD*%
D27*
%TO.C,R4*%
X139900000Y-120990001D03*
X139900000Y-122009999D03*
%TD*%
%TO.C,R3*%
X138900000Y-120990001D03*
X138900000Y-122009999D03*
%TD*%
%TO.C,R2*%
X142200000Y-104690001D03*
X142200000Y-105709999D03*
%TD*%
D28*
%TO.C,R1*%
X132009999Y-105100000D03*
X130990001Y-105100000D03*
%TD*%
D12*
%TO.C,C16*%
X139300000Y-135220000D03*
X139300000Y-136180000D03*
%TD*%
D29*
%TO.C,C15*%
X133900000Y-136180000D03*
X133900000Y-135220000D03*
%TD*%
D30*
%TO.C,C14*%
X137600000Y-109262501D03*
X137600000Y-107537499D03*
%TD*%
%TO.C,C13*%
X143200000Y-109162501D03*
X143200000Y-107437499D03*
%TD*%
D31*
%TO.C,C12*%
X138439411Y-117039411D03*
X137760589Y-116360589D03*
%TD*%
D29*
%TO.C,C11*%
X140900000Y-122080000D03*
X140900000Y-121120000D03*
%TD*%
%TO.C,C9*%
X141900000Y-122380000D03*
X141900000Y-121420000D03*
%TD*%
D32*
%TO.C,C8*%
X133880000Y-123200000D03*
X132920000Y-123200000D03*
%TD*%
D29*
%TO.C,C7*%
X141600000Y-118280000D03*
X141600000Y-117320000D03*
%TD*%
D33*
%TO.C,C6*%
X143160589Y-122239411D03*
X143839411Y-121560589D03*
%TD*%
D12*
%TO.C,C5*%
X140100000Y-132320000D03*
X140100000Y-133280000D03*
%TD*%
D32*
%TO.C,C4*%
X133480000Y-128200000D03*
X132520000Y-128200000D03*
%TD*%
D34*
%TO.C,C3*%
X143020000Y-127900000D03*
X143980000Y-127900000D03*
%TD*%
%TO.C,C2*%
X142920000Y-123500000D03*
X143880000Y-123500000D03*
%TD*%
D29*
%TO.C,C1*%
X142600000Y-118280000D03*
X142600000Y-117320000D03*
%TD*%
M02*
